<svg width="44" height="44" viewBox="0 0 44 44" fill="none" xmlns="http://www.w3.org/2000/svg">
<rect width="44" height="44" rx="22" fill="#D25050"/>
<path d="M14.3077 30.5C13.8026 30.5 13.375 30.325 13.025 29.975C12.675 29.625 12.5 29.1974 12.5 28.6923V18.3078C12.5 17.8026 12.675 17.375 13.025 17.025C13.375 16.675 13.8026 16.5 14.3077 16.5H18.5V14.8077C18.5 14.3026 18.675 13.875 19.025 13.525C19.375 13.175 19.8026 13 20.3078 13H23.6923C24.1974 13 24.625 13.175 24.975 13.525C25.325 13.875 25.5 14.3026 25.5 14.8077V16.5H29.6923C30.1974 16.5 30.625 16.675 30.975 17.025C31.325 17.375 31.5 17.8026 31.5 18.3078V28.6923C31.5 29.1974 31.325 29.625 30.975 29.975C30.625 30.325 30.1974 30.5 29.6923 30.5H14.3077ZM14.3077 29H29.6923C29.7693 29 29.8398 28.9679 29.9038 28.9038C29.9679 28.8398 30 28.7692 30 28.6923V18.3078C30 18.2308 29.9679 18.1602 29.9038 18.0962C29.8398 18.0321 29.7693 18 29.6923 18H14.3077C14.2307 18 14.1603 18.0321 14.0963 18.0962C14.0321 18.1602 14 18.2308 14 18.3078V28.6923C14 28.7692 14.0321 28.8398 14.0963 28.9038C14.1603 28.9679 14.2307 29 14.3077 29ZM20 16.5H24V14.8077C24 14.7307 23.9679 14.6602 23.9038 14.5962C23.8398 14.5321 23.7692 14.5 23.6923 14.5H20.3078C20.2308 14.5 20.1603 14.5321 20.0963 14.5962C20.0321 14.6602 20 14.7307 20 14.8077V16.5Z" fill="black"/>
</svg>
