<svg width="44" height="44" viewBox="0 0 44 44" fill="none" xmlns="http://www.w3.org/2000/svg">
<rect width="44" height="44" rx="22" fill="#4A9929"/>
<path d="M19.5493 25.515L28.1878 16.8765C28.3364 16.7277 28.5104 16.6517 28.7098 16.6485C28.9091 16.6454 29.0864 16.7214 29.2415 16.8765C29.3967 17.0317 29.4743 17.2099 29.4743 17.411C29.4743 17.6124 29.3967 17.7906 29.2415 17.9458L20.182 27.0208C20.0012 27.2014 19.7903 27.2918 19.5493 27.2918C19.3083 27.2918 19.0974 27.2014 18.9165 27.0208L14.7415 22.8458C14.5929 22.6969 14.5195 22.5203 14.5215 22.3158C14.5234 22.1114 14.6019 21.9317 14.757 21.7765C14.9122 21.6214 15.0904 21.5438 15.2915 21.5438C15.4929 21.5438 15.6711 21.6214 15.8263 21.7765L19.5493 25.515Z" fill="black"/>
</svg>
