<svg width="44" height="44" viewBox="0 0 44 44" fill="none" xmlns="http://www.w3.org/2000/svg">
<rect width="44" height="44" rx="22" fill="#4A9929"/>
<path d="M14.3077 29.5C13.8026 29.5 13.375 29.325 13.025 28.975C12.675 28.625 12.5 28.1974 12.5 27.6923V16.3077C12.5 15.8026 12.675 15.375 13.025 15.025C13.375 14.675 13.8026 14.5 14.3077 14.5H19.05C19.291 14.5 19.5227 14.5468 19.7453 14.6405C19.9676 14.734 20.1608 14.8628 20.325 15.027L21.798 16.5H29.6923C30.1974 16.5 30.625 16.675 30.975 17.025C31.325 17.375 31.5 17.8026 31.5 18.3077V27.6923C31.5 28.1974 31.325 28.625 30.975 28.975C30.625 29.325 30.1974 29.5 29.6923 29.5H14.3077ZM14.3077 28H29.6923C29.7821 28 29.8558 27.9712 29.9135 27.9135C29.9712 27.8558 30 27.7821 30 27.6923V18.3077C30 18.2179 29.9712 18.1442 29.9135 18.0865C29.8558 18.0288 29.7821 18 29.6923 18H21.1845L19.2713 16.0865C19.2391 16.0545 19.2054 16.0321 19.1702 16.0193C19.1349 16.0064 19.098 16 19.0595 16H14.3077C14.2179 16 14.1442 16.0288 14.0865 16.0865C14.0288 16.1442 14 16.2179 14 16.3077V27.6923C14 27.7821 14.0288 27.8558 14.0865 27.9135C14.1442 27.9712 14.2179 28 14.3077 28Z" fill="black"/>
</svg>
