<svg width="44" height="44" viewBox="0 0 44 44" fill="none" xmlns="http://www.w3.org/2000/svg">
<rect width="44" height="44" rx="22" fill="#3EA3B3"/>
<path d="M15 29H16.2615L26.498 18.7635L25.2365 17.502L15 27.7385V29ZM14.404 30.5C14.1478 30.5 13.9332 30.4133 13.76 30.24C13.5867 30.0668 13.5 29.8522 13.5 29.596V27.8635C13.5 27.6197 13.5468 27.3873 13.6405 27.1663C13.734 26.9453 13.8628 26.7527 14.027 26.5885L26.6905 13.9307C26.8417 13.7934 27.0086 13.6873 27.1913 13.6125C27.3741 13.5375 27.5658 13.5 27.7663 13.5C27.9668 13.5 28.1609 13.5356 28.3488 13.6068C28.5368 13.6779 28.7032 13.7911 28.848 13.9462L30.0693 15.1827C30.2244 15.3276 30.335 15.4942 30.401 15.6827C30.467 15.8712 30.5 16.0597 30.5 16.2482C30.5 16.4494 30.4657 16.6413 30.397 16.824C30.3283 17.0068 30.2191 17.1738 30.0693 17.325L17.4115 29.973C17.2473 30.1372 17.0548 30.266 16.8338 30.3595C16.6128 30.4532 16.3803 30.5 16.1365 30.5H14.404ZM25.8562 18.1438L25.2365 17.502L26.498 18.7635L25.8562 18.1438Z" fill="#1E1E1E"/>
</svg>
