<svg width="44" height="44" viewBox="0 0 44 44" fill="none" xmlns="http://www.w3.org/2000/svg">
<rect width="44" height="44" rx="22" fill="#E27D52"/>
<path d="M26.8558 26.9015L24.773 28.9843C24.6345 29.1226 24.4621 29.1902 24.2557 29.187C24.0494 29.1839 23.877 29.113 23.7385 28.9745C23.6 28.836 23.5307 28.6614 23.5307 28.4508C23.5307 28.2401 23.6 28.0666 23.7385 27.9303L25.8115 25.8573L23.7288 23.7745C23.5904 23.636 23.5228 23.462 23.526 23.2525C23.5292 23.0429 23.6 22.8688 23.7385 22.7303C23.877 22.5919 24.0516 22.5228 24.2622 22.5228C24.4729 22.5228 24.6464 22.5919 24.7828 22.7303L26.8558 24.813L28.9385 22.7303C29.0748 22.5919 29.2483 22.5228 29.459 22.5228C29.6697 22.5228 29.8442 22.5919 29.9827 22.7303C30.1211 22.8688 30.1903 23.0434 30.1903 23.254C30.1903 23.4647 30.1211 23.6382 29.9827 23.7745L27.9 25.8573L29.9827 27.94C30.1211 28.0785 30.1903 28.2509 30.1903 28.4573C30.1903 28.6636 30.1211 28.836 29.9827 28.9745C29.8442 29.113 29.6697 29.1823 29.459 29.1823C29.2483 29.1823 29.0748 29.113 28.9385 28.9745L26.8558 26.9015ZM26.2153 18.7245L29.9385 15.0015C30.0872 14.8529 30.2628 14.7795 30.4653 14.7813C30.6679 14.7833 30.8436 14.8619 30.9923 15.017C31.1308 15.168 31.2 15.3442 31.2 15.5455C31.2 15.747 31.1308 15.9221 30.9923 16.0708L26.873 20.2053C26.6923 20.3861 26.4814 20.4765 26.2402 20.4765C25.9992 20.4765 25.7884 20.3861 25.6077 20.2053L23.5635 18.161C23.425 18.0227 23.3573 17.8487 23.3605 17.639C23.3638 17.4294 23.4347 17.2554 23.573 17.117C23.7115 16.9785 23.8861 16.9093 24.0968 16.9093C24.3074 16.9093 24.4809 16.9785 24.6173 17.117L26.2153 18.7245ZM13.25 25.0593H20.25C20.4625 25.0593 20.6407 25.1312 20.7845 25.275C20.9282 25.4189 21 25.597 21 25.8095C21 26.0222 20.9282 26.2003 20.7845 26.3438C20.6407 26.4875 20.4625 26.5593 20.25 26.5593H13.25C13.0375 26.5593 12.8594 26.4874 12.7157 26.3435C12.5719 26.1997 12.5 26.0215 12.5 25.8088C12.5 25.5963 12.5719 25.4182 12.7157 25.2745C12.8594 25.131 13.0375 25.0593 13.25 25.0593ZM13.25 17.4438H20.25C20.4625 17.4438 20.6407 17.5157 20.7845 17.6595C20.9282 17.8034 21 17.9816 21 18.1943C21 18.4068 20.9282 18.5849 20.7845 18.7285C20.6407 18.872 20.4625 18.9438 20.25 18.9438H13.25C13.0375 18.9438 12.8594 18.8719 12.7157 18.728C12.5719 18.5842 12.5 18.406 12.5 18.1935C12.5 17.9809 12.5719 17.8028 12.7157 17.6593C12.8594 17.5156 13.0375 17.4438 13.25 17.4438Z" fill="#1E1E1E"/>
</svg>
