<svg width="44" height="44" viewBox="0 0 44 44" fill="none" xmlns="http://www.w3.org/2000/svg">
<rect width="44" height="44" rx="22" fill="#C4A63B"/>
<path d="M19 27.75H25C25.2128 27.75 25.391 27.6782 25.5345 27.5345C25.6782 27.391 25.75 27.2128 25.75 27C25.75 26.7872 25.6782 26.609 25.5345 26.4655C25.391 26.3218 25.2128 26.25 25 26.25H19C18.7872 26.25 18.609 26.3218 18.4655 26.4655C18.3218 26.609 18.25 26.7872 18.25 27C18.25 27.2128 18.3218 27.391 18.4655 27.5345C18.609 27.6782 18.7872 27.75 19 27.75ZM19 23.75H25C25.2128 23.75 25.391 23.6782 25.5345 23.5345C25.6782 23.391 25.75 23.2128 25.75 23C25.75 22.7872 25.6782 22.609 25.5345 22.4655C25.391 22.3218 25.2128 22.25 25 22.25H19C18.7872 22.25 18.609 22.3218 18.4655 22.4655C18.3218 22.609 18.25 22.7872 18.25 23C18.25 23.2128 18.3218 23.391 18.4655 23.5345C18.609 23.6782 18.7872 23.75 19 23.75ZM16.3077 31.5C15.8026 31.5 15.375 31.325 15.025 30.975C14.675 30.625 14.5 30.1974 14.5 29.6923V14.3077C14.5 13.8026 14.675 13.375 15.025 13.025C15.375 12.675 15.8026 12.5 16.3077 12.5H23.502C23.743 12.5 23.9748 12.5468 24.1973 12.6405C24.4196 12.734 24.6128 12.8628 24.777 13.027L28.973 17.223C29.1372 17.3872 29.266 17.5804 29.3595 17.8027C29.4532 18.0252 29.5 18.257 29.5 18.498V29.6923C29.5 30.1974 29.325 30.625 28.975 30.975C28.625 31.325 28.1974 31.5 27.6923 31.5H16.3077ZM23.5 17.596V14H16.3077C16.2307 14 16.1603 14.0321 16.0963 14.0962C16.0321 14.1602 16 14.2307 16 14.3077V29.6923C16 29.7693 16.0321 29.8398 16.0963 29.9038C16.1603 29.9679 16.2307 30 16.3077 30H27.6923C27.7692 30 27.8398 29.9679 27.9038 29.9038C27.9679 29.8398 28 29.7693 28 29.6923V18.5H24.404C24.1462 18.5 23.9311 18.4138 23.7587 18.2413C23.5862 18.0689 23.5 17.8538 23.5 17.596Z" fill="black"/>
</svg>
