<svg width="44" height="44" viewBox="0 0 44 44" fill="none" xmlns="http://www.w3.org/2000/svg">
<rect width="44" height="44" rx="22" fill="#3EA3B3"/>
<path d="M13.9998 30.7516C13.7871 30.7516 13.609 30.6797 13.4655 30.5358C13.3218 30.3922 13.25 30.2141 13.25 30.0016V29.1073C13.25 28.8948 13.3219 28.7168 13.4658 28.5731C13.6096 28.4293 13.7877 28.3573 14.0002 28.3573C14.2129 28.3573 14.391 28.4293 14.5345 28.5731C14.6782 28.7168 14.75 28.8948 14.75 29.1073V30.0016C14.75 30.2141 14.6781 30.3922 14.5342 30.5358C14.3904 30.6797 14.2123 30.7516 13.9998 30.7516ZM17.9997 30.7516C17.7871 30.7516 17.609 30.6797 17.4655 30.5358C17.3218 30.3922 17.25 30.2141 17.25 30.0016V24.6073C17.25 24.3948 17.3219 24.2168 17.4658 24.0731C17.6096 23.9293 17.7878 23.8573 18.0003 23.8573C18.2129 23.8573 18.391 23.9293 18.5345 24.0731C18.6782 24.2168 18.75 24.3948 18.75 24.6073V30.0016C18.75 30.2141 18.6781 30.3922 18.5342 30.5358C18.3904 30.6797 18.2122 30.7516 17.9997 30.7516ZM21.9998 30.7516C21.7871 30.7516 21.609 30.6797 21.4655 30.5358C21.3218 30.3922 21.25 30.2141 21.25 30.0016V26.6073C21.25 26.3948 21.3219 26.2168 21.4658 26.0731C21.6096 25.9293 21.7878 25.8573 22.0003 25.8573C22.2129 25.8573 22.391 25.9293 22.5345 26.0731C22.6782 26.2168 22.75 26.3948 22.75 26.6073V30.0016C22.75 30.2141 22.6781 30.3922 22.5343 30.5358C22.3904 30.6797 22.2122 30.7516 21.9998 30.7516ZM25.9998 30.7516C25.7871 30.7516 25.609 30.6797 25.4655 30.5358C25.3218 30.3922 25.25 30.2141 25.25 30.0016V25.1073C25.25 24.8948 25.3219 24.7168 25.4658 24.5731C25.6096 24.4293 25.7878 24.3573 26.0003 24.3573C26.2129 24.3573 26.391 24.4293 26.5345 24.5731C26.6782 24.7168 26.75 24.8948 26.75 25.1073V30.0016C26.75 30.2141 26.6781 30.3922 26.5343 30.5358C26.3904 30.6797 26.2122 30.7516 25.9998 30.7516ZM29.9998 30.7516C29.7871 30.7516 29.609 30.6797 29.4655 30.5358C29.3218 30.3922 29.25 30.2141 29.25 30.0016V21.1073C29.25 20.8948 29.3219 20.7168 29.4657 20.5731C29.6096 20.4293 29.7878 20.3573 30.0002 20.3573C30.2129 20.3573 30.391 20.4293 30.5345 20.5731C30.6782 20.7168 30.75 20.8948 30.75 21.1073V30.0016C30.75 30.2141 30.6781 30.3922 30.5343 30.5358C30.3904 30.6797 30.2122 30.7516 29.9998 30.7516ZM24 21.7073C23.7653 21.7073 23.5385 21.6623 23.3195 21.5723C23.1005 21.4823 22.9004 21.3549 22.7192 21.1901L20.2213 18.6918C20.1636 18.6342 20.0898 18.6053 20 18.6053C19.9102 18.6053 19.8364 18.6342 19.7787 18.6918L14.527 23.9438C14.3782 24.0925 14.1999 24.1659 13.9923 24.1641C13.7846 24.1621 13.6064 24.0836 13.4577 23.9286C13.3192 23.7798 13.2531 23.6028 13.2592 23.3976C13.2654 23.1923 13.3367 23.0212 13.473 22.8843L18.7192 17.6381C18.9004 17.4583 19.1005 17.3271 19.3195 17.2446C19.5385 17.1621 19.7653 17.1208 20 17.1208C20.2347 17.1208 20.4653 17.1621 20.6918 17.2446C20.9183 17.3271 21.1146 17.4583 21.2808 17.6381L23.7788 20.1363C23.8364 20.194 23.9102 20.2228 24 20.2228C24.0898 20.2228 24.1636 20.194 24.2212 20.1363L29.473 14.8843C29.6218 14.7357 29.8001 14.6623 30.0077 14.6641C30.2154 14.6661 30.3936 14.7446 30.5422 14.8996C30.6807 15.0484 30.7469 15.2254 30.7408 15.4306C30.7346 15.6359 30.6633 15.807 30.527 15.9438L25.2807 21.1901C25.1146 21.3549 24.9183 21.4823 24.6917 21.5723C24.4653 21.6623 24.2347 21.7073 24 21.7073Z" fill="black"/>
</svg>
