<svg width="44" height="44" viewBox="0 0 44 44" fill="none" xmlns="http://www.w3.org/2000/svg">
<rect width="44" height="44" rx="22" fill="#E27D52"/>
<path d="M26.7793 18.1057C26.5341 18.1057 26.3285 18.0228 26.1625 17.857C25.9965 17.6913 25.9135 17.4859 25.9135 17.2408C25.9135 16.9956 25.9964 16.79 26.1622 16.624C26.3279 16.458 26.5333 16.375 26.7785 16.375C27.0237 16.375 27.2292 16.4579 27.3953 16.6238C27.5612 16.7896 27.6443 16.995 27.6443 17.24C27.6443 17.4852 27.5613 17.6908 27.3955 17.8568C27.2297 18.0228 27.0243 18.1057 26.7793 18.1057ZM27.5038 23.8463H19.9963C19.8038 23.8463 19.6668 23.7642 19.5855 23.6C19.5042 23.4358 19.5237 23.2768 19.6442 23.123L21.0213 21.3173C21.1147 21.1968 21.2336 21.1365 21.3777 21.1365C21.5221 21.1365 21.641 21.1936 21.7345 21.3077L22.9423 22.8077L24.9578 20.2365C25.0513 20.116 25.1718 20.0557 25.3193 20.0557C25.4666 20.0557 25.5871 20.116 25.6807 20.2365L27.8652 23.123C27.9794 23.2768 27.9958 23.4358 27.9145 23.6C27.833 23.7642 27.6961 23.8463 27.5038 23.8463ZM14.5577 31C14.0526 31 13.625 30.825 13.275 30.475C12.925 30.125 12.75 29.6974 12.75 29.1923V17.0578C12.75 16.8453 12.8219 16.6671 12.9657 16.5233C13.1096 16.3796 13.2877 16.3077 13.5002 16.3077C13.7129 16.3077 13.8911 16.3796 14.0347 16.5233C14.1782 16.6671 14.25 16.8453 14.25 17.0578V29.1923C14.25 29.2693 14.2821 29.3398 14.3463 29.4038C14.4103 29.4679 14.4807 29.5 14.5577 29.5H26.6923C26.9047 29.5 27.0829 29.5719 27.2268 29.7157C27.3704 29.8596 27.4423 30.0378 27.4423 30.2502C27.4423 30.4629 27.3704 30.641 27.2268 30.7845C27.0829 30.9282 26.9047 31 26.6923 31H14.5577ZM16.25 14.3077C16.25 13.8026 16.425 13.375 16.775 13.025C17.125 12.675 17.5526 12.5 18.0578 12.5H21.9038C22.1163 12.5 22.2944 12.5719 22.4383 12.7158C22.5819 12.8596 22.6538 13.0378 22.6538 13.2503C22.6538 13.4629 22.5819 13.641 22.4383 13.7845C22.2944 13.9282 22.1163 14 21.9038 14H18.0578C17.9808 14 17.9103 14.0321 17.8463 14.0962C17.7821 14.1602 17.75 14.2307 17.75 14.3077V18.5288C17.75 18.7413 17.6781 18.9194 17.5342 19.0633C17.3904 19.2069 17.2122 19.2788 16.9997 19.2788C16.7871 19.2788 16.609 19.2069 16.4655 19.0633C16.3218 18.9194 16.25 18.7413 16.25 18.5288V14.3077ZM18.0578 27.5C17.5526 27.5 17.125 27.325 16.775 26.975C16.425 26.625 16.25 26.1974 16.25 25.6923V22.2213C16.25 22.0087 16.3219 21.8306 16.4658 21.6868C16.6096 21.5431 16.7878 21.4713 17.0003 21.4713C17.2129 21.4713 17.391 21.5431 17.5345 21.6868C17.6782 21.8306 17.75 22.0087 17.75 22.2213V25.6923C17.75 25.7692 17.7821 25.8398 17.8463 25.9038C17.9103 25.9679 17.9808 26 18.0578 26H21.9038C22.1163 26 22.2944 26.0719 22.4383 26.2158C22.5819 26.3596 22.6538 26.5378 22.6538 26.7503C22.6538 26.9629 22.5819 27.141 22.4383 27.2845C22.2944 27.4282 22.1163 27.5 21.9038 27.5H18.0578ZM29.4423 27.5H25.596C25.3837 27.5 25.2056 27.4281 25.0617 27.2843C24.9181 27.1404 24.8462 26.9622 24.8462 26.7498C24.8462 26.5371 24.9181 26.359 25.0617 26.2155C25.2056 26.0718 25.3837 26 25.596 26H29.4423C29.5193 26 29.5898 25.9679 29.6538 25.9038C29.7179 25.8398 29.75 25.7692 29.75 25.6923V22.2213C29.75 22.0087 29.8219 21.8306 29.9657 21.6868C30.1096 21.5431 30.2878 21.4713 30.5002 21.4713C30.7129 21.4713 30.891 21.5431 31.0345 21.6868C31.1782 21.8306 31.25 22.0087 31.25 22.2213V25.6923C31.25 26.1974 31.075 26.625 30.725 26.975C30.375 27.325 29.9474 27.5 29.4423 27.5ZM31.25 14.3077V18.5288C31.25 18.7413 31.1781 18.9194 31.0343 19.0633C30.8904 19.2069 30.7122 19.2788 30.4998 19.2788C30.2871 19.2788 30.1089 19.2069 29.9653 19.0633C29.8218 18.9194 29.75 18.7413 29.75 18.5288V14.3077C29.75 14.2307 29.7179 14.1602 29.6538 14.0962C29.5898 14.0321 29.5193 14 29.4423 14H25.596C25.3837 14 25.2056 13.9281 25.0617 13.7842C24.9181 13.6404 24.8462 13.4622 24.8462 13.2497C24.8462 13.0371 24.9181 12.859 25.0617 12.7155C25.2056 12.5718 25.3837 12.5 25.596 12.5H29.4423C29.9474 12.5 30.375 12.675 30.725 13.025C31.075 13.375 31.25 13.8026 31.25 14.3077Z" fill="black"/>
</svg>
