<svg width="44" height="44" viewBox="0 0 44 44" fill="none" xmlns="http://www.w3.org/2000/svg">
<rect width="44" height="44" rx="22" fill="#C4A63B"/>
<path d="M22 26.725C23.6437 25.3403 24.8879 24.0025 25.7327 22.7115C26.5776 21.4205 27 20.2109 27 19.0827C27 17.5956 26.5333 16.3767 25.6 15.426C24.6667 14.4753 23.4667 14 22 14C20.5333 14 19.3333 14.4753 18.4 15.426C17.4667 16.3767 17 17.5956 17 19.0827C17 20.2109 17.4224 21.4205 18.2673 22.7115C19.1121 24.0025 20.3563 25.3403 22 26.725ZM22 28.1595C21.8128 28.1595 21.6283 28.1278 21.4465 28.0645C21.2645 28.001 21.0978 27.9058 20.9463 27.7788C19.1334 26.2571 17.7725 24.768 16.8635 23.3115C15.9545 21.8552 15.5 20.4456 15.5 19.0827C15.5 17.1596 16.1052 15.5817 17.3155 14.349C18.5257 13.1163 20.0872 12.5 22 12.5C23.9128 12.5 25.4743 13.1163 26.6845 14.349C27.8948 15.5817 28.5 17.1596 28.5 19.0827C28.5 20.4456 28.0455 21.8536 27.1365 23.3068C26.2275 24.7599 24.8665 26.2492 23.0535 27.7745C22.8998 27.9043 22.7327 28.001 22.552 28.0645C22.3712 28.1278 22.1872 28.1595 22 28.1595ZM22.0018 20.8077C22.4993 20.8077 22.9246 20.6306 23.2777 20.2762C23.6311 19.9219 23.8077 19.4959 23.8077 18.9983C23.8077 18.5008 23.6306 18.0754 23.2762 17.7223C22.9219 17.3689 22.4959 17.1923 21.9983 17.1923C21.5008 17.1923 21.0754 17.3694 20.7223 17.7238C20.3689 18.0781 20.1923 18.5041 20.1923 19.0018C20.1923 19.4993 20.3694 19.9246 20.7238 20.2777C21.0781 20.6311 21.5041 20.8077 22.0018 20.8077ZM16.25 31.5C16.0375 31.5 15.8594 31.4281 15.7158 31.2843C15.5719 31.1404 15.5 30.9622 15.5 30.7498C15.5 30.5371 15.5719 30.359 15.7158 30.2155C15.8594 30.0718 16.0375 30 16.25 30H27.75C27.9625 30 28.1406 30.0719 28.2843 30.2157C28.4281 30.3596 28.5 30.5378 28.5 30.7502C28.5 30.9629 28.4281 31.141 28.2843 31.2845C28.1406 31.4282 27.9625 31.5 27.75 31.5H16.25Z" fill="black"/>
</svg>
