<svg width="44" height="44" viewBox="0 0 44 44" fill="none" xmlns="http://www.w3.org/2000/svg">
<rect width="44" height="44" rx="22" fill="#D25050"/>
<path d="M15.3077 30.5C14.8026 30.5 14.375 30.325 14.025 29.975C13.675 29.625 13.5 29.1974 13.5 28.6923V15.3077C13.5 14.8026 13.675 14.375 14.025 14.025C14.375 13.675 14.8026 13.5 15.3077 13.5H28.6923C29.1974 13.5 29.625 13.675 29.975 14.025C30.325 14.375 30.5 14.8026 30.5 15.3077V28.6923C30.5 29.1974 30.325 29.625 29.975 29.975C29.625 30.325 29.1974 30.5 28.6923 30.5H15.3077ZM15.3077 29H28.6923C28.7692 29 28.8398 28.9679 28.9038 28.9038C28.9679 28.8398 29 28.7692 29 28.6923V15.3077C29 15.2307 28.9679 15.1602 28.9038 15.0962C28.8398 15.0321 28.7692 15 28.6923 15H15.3077C15.2307 15 15.1603 15.0321 15.0963 15.0962C15.0321 15.1602 15 15.2307 15 15.3077V28.6923C15 28.7692 15.0321 28.8398 15.0963 28.9038C15.1603 28.9679 15.2307 29 15.3077 29ZM18 26.75H23C23.2128 26.75 23.391 26.6782 23.5345 26.5345C23.6782 26.391 23.75 26.2128 23.75 26C23.75 25.7872 23.6782 25.609 23.5345 25.4655C23.391 25.3218 23.2128 25.25 23 25.25H18C17.7872 25.25 17.609 25.3218 17.4655 25.4655C17.3218 25.609 17.25 25.7872 17.25 26C17.25 26.2128 17.3218 26.391 17.4655 26.5345C17.609 26.6782 17.7872 26.75 18 26.75ZM18 22.75H26C26.2128 22.75 26.391 22.6782 26.5345 22.5345C26.6782 22.391 26.75 22.2128 26.75 22C26.75 21.7872 26.6782 21.609 26.5345 21.4655C26.391 21.3218 26.2128 21.25 26 21.25H18C17.7872 21.25 17.609 21.3218 17.4655 21.4655C17.3218 21.609 17.25 21.7872 17.25 22C17.25 22.2128 17.3218 22.391 17.4655 22.5345C17.609 22.6782 17.7872 22.75 18 22.75ZM18 18.75H26C26.2128 18.75 26.391 18.6782 26.5345 18.5345C26.6782 18.391 26.75 18.2128 26.75 18C26.75 17.7872 26.6782 17.609 26.5345 17.4655C26.391 17.3218 26.2128 17.25 26 17.25H18C17.7872 17.25 17.609 17.3218 17.4655 17.4655C17.3218 17.609 17.25 17.7872 17.25 18C17.25 18.2128 17.3218 18.391 17.4655 18.5345C17.609 18.6782 17.7872 18.75 18 18.75Z" fill="black"/>
</svg>
