<svg width="7" height="12" viewBox="0 0 7 12" fill="none" xmlns="http://www.w3.org/2000/svg">
<path d="M2.38724 5.99559L6.46048 10.0686C6.59882 10.2071 6.66965 10.3812 6.67298 10.5908C6.67615 10.8003 6.60532 10.9776 6.46048 11.1226C6.31548 11.2674 6.13982 11.3398 5.93348 11.3398C5.72715 11.3398 5.55148 11.2674 5.40648 11.1226L0.912235 6.62834C0.818735 6.53468 0.752734 6.43593 0.714234 6.33209C0.675734 6.22826 0.656484 6.11609 0.656484 5.99559C0.656484 5.87509 0.675734 5.76293 0.714234 5.65909C0.752734 5.55526 0.818735 5.45651 0.912235 5.36284L5.40648 0.868592C5.54498 0.730259 5.71907 0.659426 5.92873 0.656093C6.13823 0.652926 6.31548 0.72376 6.46048 0.868592C6.60532 1.01359 6.67773 1.18926 6.67773 1.39559C6.67773 1.60193 6.60532 1.77759 6.46048 1.92259L2.38724 5.99559Z" fill="#1E1E1E"/>
</svg>
