<svg width="11" height="7" viewBox="0 0 11 7" fill="none" xmlns="http://www.w3.org/2000/svg">
<path d="M5.66847 2.71731L1.59547 6.79056C1.45697 6.9289 1.28289 6.99973 1.07322 7.00306C0.863719 7.00623 0.686469 6.9354 0.541469 6.79056C0.396635 6.64556 0.324219 6.4699 0.324219 6.26356C0.324219 6.05723 0.396635 5.88156 0.541469 5.73656L5.03572 1.24231C5.12939 1.14881 5.22814 1.08281 5.33197 1.04431C5.4358 1.00581 5.54797 0.986562 5.66847 0.986562C5.78897 0.986562 5.90114 1.00581 6.00497 1.04431C6.1088 1.08281 6.20755 1.14881 6.30122 1.24231L10.7955 5.73656C10.9338 5.87506 11.0046 6.04915 11.008 6.25881C11.0111 6.46831 10.9403 6.64556 10.7955 6.79056C10.6505 6.9354 10.4748 7.00781 10.2685 7.00781C10.0621 7.00781 9.88647 6.9354 9.74147 6.79056L5.66847 2.71731Z" fill="#1E1E1E"/>
</svg>
