<svg width="18" height="18" viewBox="0 0 18 18" fill="none" xmlns="http://www.w3.org/2000/svg">
<path d="M9.02905 17.4991C6.65988 17.4991 4.65096 16.6748 3.0023 15.0261C1.35363 13.3773 0.529297 11.3683 0.529297 8.99915C0.529297 7.02615 1.1398 5.27231 2.3608 3.73765C3.58196 2.20298 5.20855 1.2139 7.24055 0.770398C7.45088 0.717731 7.63613 0.722815 7.7963 0.785649C7.95663 0.848482 8.0868 0.942065 8.1868 1.0664C8.2868 1.1909 8.3458 1.3419 8.3638 1.5194C8.38163 1.6969 8.33996 1.87415 8.2388 2.05115C8.0323 2.42682 7.87905 2.81706 7.77905 3.2219C7.67905 3.62673 7.62905 4.05248 7.62905 4.49915C7.62905 6.13798 8.20271 7.53107 9.35005 8.6784C10.4972 9.82557 11.8902 10.3991 13.529 10.3991C14.0202 10.3991 14.4895 10.337 14.9368 10.2126C15.3843 10.0883 15.776 9.94407 16.1118 9.7799C16.276 9.70823 16.4362 9.6829 16.5925 9.7039C16.749 9.72507 16.8825 9.77732 16.993 9.86065C17.1159 9.94398 17.207 10.0578 17.2665 10.2021C17.3262 10.3463 17.333 10.5158 17.2868 10.7106C16.9316 12.6773 15.9749 14.3004 14.4165 15.5799C12.8582 16.8594 11.0624 17.4991 9.02905 17.4991ZM9.02905 15.9991C10.4957 15.9991 11.8124 15.595 12.979 14.7866C14.1457 13.9783 14.9957 12.9241 15.529 11.6241C15.1957 11.7075 14.8624 11.7741 14.529 11.8241C14.1957 11.8741 13.8624 11.8991 13.529 11.8991C11.479 11.8991 9.73321 11.1783 8.29155 9.73665C6.84988 8.29498 6.12905 6.54915 6.12905 4.49915C6.12905 4.16581 6.15405 3.83248 6.20405 3.49915C6.25405 3.16581 6.32071 2.83248 6.40405 2.49915C5.10405 3.03248 4.04988 3.88248 3.24155 5.04915C2.43321 6.21581 2.02905 7.53248 2.02905 8.99915C2.02905 10.9325 2.71238 12.5825 4.07905 13.9491C5.44571 15.3158 7.09571 15.9991 9.02905 15.9991Z" fill="black"/>
</svg>
