<svg width="19" height="12" viewBox="0 0 19 12" fill="none" xmlns="http://www.w3.org/2000/svg">
<path d="M0.74975 11.75C0.537083 11.75 0.359 11.6781 0.2155 11.5343C0.0718334 11.3906 0 11.2125 0 11V1C0 0.7875 0.0719166 0.609417 0.21575 0.46575C0.359583 0.321917 0.53775 0.25 0.75025 0.25C0.962917 0.25 1.141 0.321917 1.2845 0.46575C1.42817 0.609417 1.5 0.7875 1.5 1V11C1.5 11.2125 1.42808 11.3906 1.28425 11.5343C1.14042 11.6781 0.96225 11.75 0.74975 11.75ZM16.1365 6.75H4.44225C4.22975 6.75 4.05167 6.67808 3.908 6.53425C3.76417 6.39042 3.69225 6.21225 3.69225 5.99975C3.69225 5.78708 3.76417 5.609 3.908 5.4655C4.05167 5.32183 4.22975 5.25 4.44225 5.25H16.127L12.8288 1.91725C12.6904 1.77875 12.6202 1.60892 12.6182 1.40775C12.6164 1.20642 12.6898 1.03083 12.8385 0.881C12.9748 0.743666 13.1483 0.675 13.359 0.675C13.5697 0.675 13.7443 0.74425 13.8828 0.88275L18.3673 5.36725C18.4609 5.46092 18.5269 5.56008 18.5652 5.66475C18.6037 5.76942 18.623 5.88158 18.623 6.00125C18.623 6.12092 18.6037 6.23267 18.5652 6.3365C18.5269 6.44033 18.4609 6.53908 18.3673 6.63275L13.873 11.127C13.7362 11.2653 13.5651 11.3345 13.3598 11.3345C13.1546 11.3345 12.9776 11.2653 12.8288 11.127C12.6738 10.9782 12.5978 10.7999 12.601 10.5923C12.6042 10.3846 12.6801 10.2064 12.8288 10.0578L16.1365 6.75Z" fill="#1E1E1E"/>
</svg>
