<svg width="20" height="16" viewBox="0 0 20 16" fill="none" xmlns="http://www.w3.org/2000/svg">
<path d="M14.8558 12.9015L12.773 14.9843C12.6345 15.1226 12.4621 15.1902 12.2557 15.187C12.0494 15.1839 11.877 15.113 11.7385 14.9745C11.6 14.836 11.5307 14.6614 11.5307 14.4508C11.5307 14.2401 11.6 14.0666 11.7385 13.9303L13.8115 11.8573L11.7288 9.77453C11.5904 9.63603 11.5228 9.46203 11.526 9.25253C11.5292 9.04287 11.6 8.86878 11.7385 8.73028C11.877 8.59195 12.0516 8.52278 12.2622 8.52278C12.4729 8.52278 12.6464 8.59195 12.7828 8.73028L14.8558 10.813L16.9385 8.73028C17.0748 8.59195 17.2483 8.52278 17.459 8.52278C17.6697 8.52278 17.8442 8.59195 17.9827 8.73028C18.1211 8.86878 18.1903 9.04337 18.1903 9.25403C18.1903 9.4647 18.1211 9.6382 17.9827 9.77453L15.9 11.8573L17.9827 13.94C18.1211 14.0785 18.1903 14.2509 18.1903 14.4573C18.1903 14.6636 18.1211 14.836 17.9827 14.9745C17.8442 15.113 17.6697 15.1823 17.459 15.1823C17.2483 15.1823 17.0748 15.113 16.9385 14.9745L14.8558 12.9015ZM14.2153 4.72453L17.9385 1.00153C18.0872 0.852867 18.2628 0.77945 18.4653 0.781283C18.6679 0.783283 18.8436 0.861867 18.9923 1.01703C19.1308 1.16803 19.2 1.3442 19.2 1.54553C19.2 1.74703 19.1308 1.92212 18.9923 2.07078L14.873 6.20528C14.6923 6.38612 14.4814 6.47653 14.2402 6.47653C13.9992 6.47653 13.7884 6.38612 13.6077 6.20528L11.5635 4.16103C11.425 4.0227 11.3573 3.8487 11.3605 3.63903C11.3638 3.42937 11.4347 3.25537 11.573 3.11703C11.7115 2.97853 11.8861 2.90928 12.0968 2.90928C12.3074 2.90928 12.4809 2.97853 12.6173 3.11703L14.2153 4.72453ZM1.25 11.0593H8.25C8.4625 11.0593 8.64067 11.1312 8.7845 11.275C8.92817 11.4189 9 11.597 9 11.8095C9 12.0222 8.92817 12.2003 8.7845 12.3438C8.64067 12.4875 8.4625 12.5593 8.25 12.5593H1.25C1.0375 12.5593 0.859417 12.4874 0.71575 12.3435C0.571917 12.1997 0.5 12.0215 0.5 11.8088C0.5 11.5963 0.571917 11.4182 0.71575 11.2745C0.859417 11.131 1.0375 11.0593 1.25 11.0593ZM1.25 3.44378H8.25C8.4625 3.44378 8.64067 3.5157 8.7845 3.65953C8.92817 3.80337 9 3.98162 9 4.19428C9 4.40678 8.92817 4.58487 8.7845 4.72853C8.64067 4.87203 8.4625 4.94378 8.25 4.94378H1.25C1.0375 4.94378 0.859417 4.87187 0.71575 4.72803C0.571917 4.5842 0.5 4.40603 0.5 4.19353C0.5 3.98087 0.571917 3.80278 0.71575 3.65928C0.859417 3.51562 1.0375 3.44378 1.25 3.44378Z" fill="black"/>
</svg>
