<svg width="18" height="10" viewBox="0 0 18 10" fill="none" xmlns="http://www.w3.org/2000/svg">
<path d="M5.077 2.05775C4.8645 2.05775 4.68633 1.98583 4.5425 1.842C4.39883 1.69817 4.327 1.52 4.327 1.3075C4.327 1.09483 4.39883 0.916666 4.5425 0.773C4.68633 0.6295 4.8645 0.55775 5.077 0.55775H16.75C16.9625 0.55775 17.1406 0.629667 17.2843 0.7735C17.4281 0.917333 17.5 1.0955 17.5 1.308C17.5 1.52067 17.4281 1.69875 17.2843 1.84225C17.1406 1.98592 16.9625 2.05775 16.75 2.05775H5.077ZM5.077 5.75C4.8645 5.75 4.68633 5.67808 4.5425 5.53425C4.39883 5.39042 4.327 5.21225 4.327 4.99975C4.327 4.78708 4.39883 4.609 4.5425 4.4655C4.68633 4.32183 4.8645 4.25 5.077 4.25H16.75C16.9625 4.25 17.1406 4.32192 17.2843 4.46575C17.4281 4.60958 17.5 4.78775 17.5 5.00025C17.5 5.21292 17.4281 5.391 17.2843 5.5345C17.1406 5.67817 16.9625 5.75 16.75 5.75H5.077ZM5.077 9.44225C4.8645 9.44225 4.68633 9.37033 4.5425 9.2265C4.39883 9.08267 4.327 8.9045 4.327 8.692C4.327 8.47933 4.39883 8.30125 4.5425 8.15775C4.68633 8.01408 4.8645 7.94225 5.077 7.94225H16.75C16.9625 7.94225 17.1406 8.01417 17.2843 8.158C17.4281 8.30183 17.5 8.48 17.5 8.6925C17.5 8.90517 17.4281 9.08333 17.2843 9.227C17.1406 9.3705 16.9625 9.44225 16.75 9.44225H5.077ZM1.30775 2.1155C1.07892 2.1155 0.887083 2.03717 0.73225 1.8805C0.577417 1.72383 0.5 1.52967 0.5 1.298C0.5 1.072 0.577417 0.8825 0.73225 0.7295C0.887083 0.5765 1.07892 0.5 1.30775 0.5C1.53658 0.5 1.72842 0.5765 1.88325 0.7295C2.03808 0.8825 2.1155 1.072 2.1155 1.298C2.1155 1.52967 2.03808 1.72383 1.88325 1.8805C1.72842 2.03717 1.53658 2.1155 1.30775 2.1155ZM1.30775 5.798C1.07892 5.798 0.887083 5.7215 0.73225 5.5685C0.577417 5.41567 0.5 5.22617 0.5 5C0.5 4.7615 0.577417 4.56567 0.73225 4.4125C0.887083 4.25933 1.07892 4.18275 1.30775 4.18275C1.53658 4.18275 1.72842 4.25933 1.88325 4.4125C2.03808 4.56567 2.1155 4.7615 2.1155 5C2.1155 5.22617 2.03808 5.41567 1.88325 5.5685C1.72842 5.7215 1.53658 5.798 1.30775 5.798ZM1.30775 9.5C1.07892 9.5 0.887083 9.42167 0.73225 9.265C0.577417 9.10833 0.5 8.91425 0.5 8.68275C0.5 8.45658 0.577417 8.267 0.73225 8.114C0.887083 7.961 1.07892 7.8845 1.30775 7.8845C1.53658 7.8845 1.72842 7.961 1.88325 8.114C2.03808 8.267 2.1155 8.45658 2.1155 8.68275C2.1155 8.91425 2.03808 9.10833 1.88325 9.265C1.72842 9.42167 1.53658 9.5 1.30775 9.5Z" fill="black"/>
</svg>
