<svg width="45" height="44" viewBox="0 0 45 44" fill="none" xmlns="http://www.w3.org/2000/svg">
<rect x="0.333984" width="44" height="44" rx="22" fill="#8765CC"/>
<path d="M27.1132 18.1057C26.8681 18.1057 26.6625 18.0228 26.4965 17.857C26.3305 17.6913 26.2475 17.4859 26.2475 17.2408C26.2475 16.9956 26.3304 16.79 26.4962 16.624C26.6619 16.458 26.8673 16.375 27.1125 16.375C27.3577 16.375 27.5632 16.4579 27.7292 16.6238C27.8952 16.7896 27.9782 16.995 27.9782 17.24C27.9782 17.4852 27.8953 17.6908 27.7295 17.8568C27.5637 18.0228 27.3582 18.1057 27.1132 18.1057ZM27.8377 23.8463H20.3302C20.1377 23.8463 20.0008 23.7642 19.9195 23.6C19.8382 23.4358 19.8577 23.2768 19.9782 23.123L21.3552 21.3173C21.4487 21.1968 21.5676 21.1365 21.7117 21.1365C21.8561 21.1365 21.975 21.1936 22.0685 21.3078L23.2762 22.8078L25.2917 20.2365C25.3852 20.116 25.5057 20.0557 25.6532 20.0557C25.8006 20.0557 25.9211 20.116 26.0147 20.2365L28.1992 23.123C28.3134 23.2768 28.3298 23.4358 28.2485 23.6C28.167 23.7642 28.0301 23.8463 27.8377 23.8463ZM14.8917 31C14.3866 31 13.959 30.825 13.609 30.475C13.259 30.125 13.084 29.6974 13.084 29.1923V17.0578C13.084 16.8453 13.1559 16.6671 13.2997 16.5232C13.4436 16.3796 13.6217 16.3077 13.8342 16.3077C14.0469 16.3077 14.2251 16.3796 14.3687 16.5232C14.5122 16.6671 14.584 16.8453 14.584 17.0578V29.1923C14.584 29.2693 14.6161 29.3398 14.6802 29.4038C14.7442 29.4679 14.8147 29.5 14.8917 29.5H27.0262C27.2387 29.5 27.4169 29.5719 27.5607 29.7158C27.7044 29.8596 27.7762 30.0378 27.7762 30.2503C27.7762 30.4629 27.7044 30.641 27.5607 30.7845C27.4169 30.9282 27.2387 31 27.0262 31H14.8917ZM16.584 14.3077C16.584 13.8026 16.759 13.375 17.109 13.025C17.459 12.675 17.8866 12.5 18.3917 12.5H22.2377C22.4502 12.5 22.6284 12.5719 22.7722 12.7158C22.9159 12.8596 22.9877 13.0378 22.9877 13.2503C22.9877 13.4629 22.9159 13.641 22.7722 13.7845C22.6284 13.9282 22.4502 14 22.2377 14H18.3917C18.3147 14 18.2442 14.0321 18.1802 14.0962C18.1161 14.1602 18.084 14.2307 18.084 14.3077V18.5288C18.084 18.7413 18.0121 18.9194 17.8682 19.0633C17.7244 19.2069 17.5462 19.2788 17.3337 19.2788C17.1211 19.2788 16.943 19.2069 16.7995 19.0633C16.6558 18.9194 16.584 18.7413 16.584 18.5288V14.3077ZM18.3917 27.5C17.8866 27.5 17.459 27.325 17.109 26.975C16.759 26.625 16.584 26.1974 16.584 25.6923V22.2213C16.584 22.0088 16.6559 21.8306 16.7997 21.6868C16.9436 21.5431 17.1217 21.4713 17.3342 21.4713C17.5469 21.4713 17.725 21.5431 17.8685 21.6868C18.0122 21.8306 18.084 22.0088 18.084 22.2213V25.6923C18.084 25.7693 18.1161 25.8398 18.1802 25.9038C18.2442 25.9679 18.3147 26 18.3917 26H22.2377C22.4502 26 22.6284 26.0719 22.7722 26.2158C22.9159 26.3596 22.9877 26.5378 22.9877 26.7503C22.9877 26.9629 22.9159 27.141 22.7722 27.2845C22.6284 27.4282 22.4502 27.5 22.2377 27.5H18.3917ZM29.7762 27.5H25.93C25.7177 27.5 25.5396 27.4281 25.3957 27.2843C25.2521 27.1404 25.1802 26.9622 25.1802 26.7497C25.1802 26.5371 25.2521 26.359 25.3957 26.2155C25.5396 26.0718 25.7177 26 25.93 26H29.7762C29.8532 26 29.9237 25.9679 29.9877 25.9038C30.0519 25.8398 30.084 25.7693 30.084 25.6923V22.2213C30.084 22.0088 30.1559 21.8306 30.2997 21.6868C30.4436 21.5431 30.6217 21.4713 30.8342 21.4713C31.0469 21.4713 31.225 21.5431 31.3685 21.6868C31.5122 21.8306 31.584 22.0088 31.584 22.2213V25.6923C31.584 26.1974 31.409 26.625 31.059 26.975C30.709 27.325 30.2814 27.5 29.7762 27.5ZM31.584 14.3077V18.5288C31.584 18.7413 31.5121 18.9194 31.3682 19.0633C31.2244 19.2069 31.0462 19.2788 30.8337 19.2788C30.6211 19.2788 30.4429 19.2069 30.2992 19.0633C30.1557 18.9194 30.084 18.7413 30.084 18.5288V14.3077C30.084 14.2307 30.0519 14.1602 29.9877 14.0962C29.9237 14.0321 29.8532 14 29.7762 14H25.93C25.7177 14 25.5396 13.9281 25.3957 13.7842C25.2521 13.6404 25.1802 13.4622 25.1802 13.2497C25.1802 13.0371 25.2521 12.859 25.3957 12.7155C25.5396 12.5718 25.7177 12.5 25.93 12.5H29.7762C30.2814 12.5 30.709 12.675 31.059 13.025C31.409 13.375 31.584 13.8026 31.584 14.3077Z" fill="black"/>
</svg>
