<svg width="45" height="44" viewBox="0 0 45 44" fill="none" xmlns="http://www.w3.org/2000/svg">
<rect x="0.333984" width="44" height="44" rx="22" fill="#8765CC"/>
<path d="M14.6417 30.5C14.1366 30.5 13.709 30.325 13.359 29.975C13.009 29.625 12.834 29.1974 12.834 28.6923V18.3078C12.834 17.8026 13.009 17.375 13.359 17.025C13.709 16.675 14.1366 16.5 14.6417 16.5H18.834V14.8077C18.834 14.3026 19.009 13.875 19.359 13.525C19.709 13.175 20.1366 13 20.6417 13H24.0262C24.5314 13 24.959 13.175 25.309 13.525C25.659 13.875 25.834 14.3026 25.834 14.8077V16.5H30.0262C30.5314 16.5 30.959 16.675 31.309 17.025C31.659 17.375 31.834 17.8026 31.834 18.3078V28.6923C31.834 29.1974 31.659 29.625 31.309 29.975C30.959 30.325 30.5314 30.5 30.0262 30.5H14.6417ZM14.6417 29H30.0262C30.1032 29 30.1737 28.9679 30.2377 28.9038C30.3019 28.8398 30.334 28.7693 30.334 28.6923V18.3078C30.334 18.2308 30.3019 18.1602 30.2377 18.0962C30.1737 18.0321 30.1032 18 30.0262 18H14.6417C14.5647 18 14.4942 18.0321 14.4302 18.0962C14.3661 18.1602 14.334 18.2308 14.334 18.3078V28.6923C14.334 28.7693 14.3661 28.8398 14.4302 28.9038C14.4942 28.9679 14.5647 29 14.6417 29ZM20.334 16.5H24.334V14.8077C24.334 14.7307 24.3019 14.6602 24.2377 14.5962C24.1737 14.5321 24.1032 14.5 24.0262 14.5H20.6417C20.5647 14.5 20.4942 14.5321 20.4302 14.5962C20.3661 14.6602 20.334 14.7307 20.334 14.8077V16.5Z" fill="black"/>
</svg>
