<svg width="45" height="44" viewBox="0 0 45 44" fill="none" xmlns="http://www.w3.org/2000/svg">
<rect x="0.666016" width="44" height="44" rx="22" fill="#8765CC"/>
<path d="M14.6658 30.7496C14.4531 30.7496 14.275 30.6777 14.1315 30.5339C13.9878 30.3902 13.916 30.2121 13.916 29.9996V29.1054C13.916 28.8929 13.9879 28.7148 14.1318 28.5711C14.2756 28.4273 14.4538 28.3554 14.6663 28.3554C14.8789 28.3554 15.057 28.4273 15.2005 28.5711C15.3442 28.7148 15.416 28.8929 15.416 29.1054V29.9996C15.416 30.2121 15.3441 30.3902 15.2003 30.5339C15.0564 30.6777 14.8783 30.7496 14.6658 30.7496ZM18.6658 30.7496C18.4531 30.7496 18.275 30.6777 18.1315 30.5339C17.9878 30.3902 17.916 30.2121 17.916 29.9996V24.6054C17.916 24.3929 17.9879 24.2148 18.1318 24.0711C18.2756 23.9273 18.4538 23.8554 18.6663 23.8554C18.8789 23.8554 19.057 23.9273 19.2005 24.0711C19.3442 24.2148 19.416 24.3929 19.416 24.6054V29.9996C19.416 30.2121 19.3441 30.3902 19.2003 30.5339C19.0564 30.6777 18.8783 30.7496 18.6658 30.7496ZM22.6658 30.7496C22.4531 30.7496 22.275 30.6777 22.1315 30.5339C21.9878 30.3902 21.916 30.2121 21.916 29.9996V26.6054C21.916 26.3929 21.9879 26.2148 22.1318 26.0711C22.2756 25.9273 22.4538 25.8554 22.6663 25.8554C22.8789 25.8554 23.057 25.9273 23.2005 26.0711C23.3442 26.2148 23.416 26.3929 23.416 26.6054V29.9996C23.416 30.2121 23.3441 30.3902 23.2003 30.5339C23.0564 30.6777 22.8783 30.7496 22.6658 30.7496ZM26.6658 30.7496C26.4531 30.7496 26.275 30.6777 26.1315 30.5339C25.9878 30.3902 25.916 30.2121 25.916 29.9996V25.1054C25.916 24.8929 25.9879 24.7148 26.1318 24.5711C26.2756 24.4273 26.4538 24.3554 26.6663 24.3554C26.8789 24.3554 27.057 24.4273 27.2005 24.5711C27.3442 24.7148 27.416 24.8929 27.416 25.1054V29.9996C27.416 30.2121 27.3441 30.3902 27.2003 30.5339C27.0564 30.6777 26.8783 30.7496 26.6658 30.7496ZM30.6658 30.7496C30.4531 30.7496 30.275 30.6777 30.1315 30.5339C29.9878 30.3902 29.916 30.2121 29.916 29.9996V21.1054C29.916 20.8929 29.9879 20.7148 30.1318 20.5711C30.2756 20.4273 30.4538 20.3554 30.6663 20.3554C30.8789 20.3554 31.057 20.4273 31.2005 20.5711C31.3442 20.7148 31.416 20.8929 31.416 21.1054V29.9996C31.416 30.2121 31.3441 30.3902 31.2003 30.5339C31.0564 30.6777 30.8783 30.7496 30.6658 30.7496ZM24.666 21.7054C24.4313 21.7054 24.2045 21.6604 23.9855 21.5704C23.7665 21.4804 23.5664 21.353 23.3853 21.1881L20.8873 18.6899C20.8296 18.6322 20.7558 18.6034 20.666 18.6034C20.5762 18.6034 20.5024 18.6322 20.4448 18.6899L15.193 23.9419C15.0442 24.0906 14.8659 24.164 14.6583 24.1621C14.4506 24.1601 14.2724 24.0816 14.1238 23.9266C13.9853 23.7778 13.9191 23.6008 13.9253 23.3956C13.9314 23.1903 14.0027 23.0192 14.139 22.8824L19.3853 17.6361C19.5664 17.4563 19.7665 17.3251 19.9855 17.2426C20.2045 17.1601 20.4313 17.1189 20.666 17.1189C20.9007 17.1189 21.1313 17.1601 21.3578 17.2426C21.5843 17.3251 21.7806 17.4563 21.9468 17.6361L24.4448 20.1344C24.5024 20.1921 24.5762 20.2209 24.666 20.2209C24.7558 20.2209 24.8296 20.1921 24.8873 20.1344L30.139 14.8824C30.2878 14.7337 30.4661 14.6603 30.6738 14.6621C30.8814 14.6641 31.0596 14.7426 31.2083 14.8976C31.3468 15.0465 31.4129 15.2235 31.4068 15.4286C31.4006 15.634 31.3293 15.8051 31.193 15.9419L25.9468 21.1881C25.7806 21.353 25.5843 21.4804 25.3578 21.5704C25.1313 21.6604 24.9007 21.7054 24.666 21.7054Z" fill="black"/>
</svg>
