<svg width="7" height="12" viewBox="0 0 7 12" fill="none" xmlns="http://www.w3.org/2000/svg">
<path d="M2.45341 5.99976L6.52666 10.0728C6.66499 10.2113 6.73582 10.3853 6.73916 10.595C6.74232 10.8045 6.67149 10.9818 6.52666 11.1268C6.38166 11.2716 6.20599 11.344 5.99966 11.344C5.79332 11.344 5.61766 11.2716 5.47266 11.1268L0.978406 6.63251C0.884906 6.53884 0.818906 6.44009 0.780406 6.33626C0.741906 6.23243 0.722656 6.12026 0.722656 5.99976C0.722656 5.87926 0.741906 5.76709 0.780406 5.66326C0.818906 5.55943 0.884906 5.46068 0.978406 5.36701L5.47266 0.872758C5.61116 0.734425 5.78524 0.663591 5.99491 0.660258C6.20441 0.657091 6.38166 0.727925 6.52666 0.872758C6.67149 1.01776 6.74391 1.19342 6.74391 1.39976C6.74391 1.60609 6.67149 1.78176 6.52666 1.92676L2.45341 5.99976Z" fill="white"/>
</svg>
