<svg width="7" height="12" viewBox="0 0 7 12" fill="none" xmlns="http://www.w3.org/2000/svg">
<path d="M4.94675 6.0005L0.8735 1.9275C0.735167 1.789 0.664333 1.61492 0.661 1.40525C0.657833 1.19575 0.728667 1.0185 0.8735 0.8735C1.0185 0.728667 1.19417 0.65625 1.4005 0.65625C1.60683 0.65625 1.7825 0.728667 1.9275 0.8735L6.42175 5.36775C6.51525 5.46142 6.58125 5.56017 6.61975 5.664C6.65825 5.76783 6.6775 5.88 6.6775 6.0005C6.6775 6.121 6.65825 6.23317 6.61975 6.337C6.58125 6.44083 6.51525 6.53958 6.42175 6.63325L1.9275 11.1275C1.789 11.2658 1.61492 11.3367 1.40525 11.34C1.19575 11.3432 1.0185 11.2723 0.8735 11.1275C0.728667 10.9825 0.65625 10.8068 0.65625 10.6005C0.65625 10.3942 0.728667 10.2185 0.8735 10.0735L4.94675 6.0005Z" fill="white"/>
</svg>
