<svg width="20" height="16" viewBox="0 0 20 16" fill="none" xmlns="http://www.w3.org/2000/svg">
<path d="M2.30775 15.5C1.80258 15.5 1.375 15.325 1.025 14.975C0.675 14.625 0.5 14.1974 0.5 13.6923V2.30775C0.5 1.80258 0.675 1.375 1.025 1.025C1.375 0.675 1.80258 0.5 2.30775 0.5H7.05C7.291 0.5 7.52275 0.546833 7.74525 0.6405C7.96758 0.734 8.16083 0.862834 8.325 1.027L9.798 2.5H17.6923C18.1974 2.5 18.625 2.675 18.975 3.025C19.325 3.375 19.5 3.80258 19.5 4.30775V13.6923C19.5 14.1974 19.325 14.625 18.975 14.975C18.625 15.325 18.1974 15.5 17.6923 15.5H2.30775ZM2.30775 14H17.6923C17.7821 14 17.8558 13.9712 17.9135 13.9135C17.9712 13.8558 18 13.7821 18 13.6923V4.30775C18 4.21792 17.9712 4.14417 17.9135 4.0865C17.8558 4.02883 17.7821 4 17.6923 4H9.1845L7.27125 2.0865C7.23908 2.0545 7.20542 2.03208 7.17025 2.01925C7.13492 2.00642 7.098 2 7.0595 2H2.30775C2.21792 2 2.14417 2.02883 2.0865 2.0865C2.02883 2.14417 2 2.21792 2 2.30775V13.6923C2 13.7821 2.02883 13.8558 2.0865 13.9135C2.14417 13.9712 2.21792 14 2.30775 14Z" fill="#EBEBEB"/>
</svg>
