<svg width="20" height="19" viewBox="0 0 20 19" fill="none" xmlns="http://www.w3.org/2000/svg">
<path d="M4.20375 18.5C3.83975 18.5 3.493 18.3763 3.1635 18.1288C2.834 17.8814 2.61733 17.5788 2.5135 17.221C2.09683 15.7827 1.76 14.5638 1.503 13.5645C1.24583 12.565 1.04292 11.7034 0.89425 10.9798C0.745583 10.2561 0.642667 9.62467 0.5855 9.0855C0.5285 8.5465 0.5 8.018 0.5 7.5C0.5 6.10767 0.98525 4.92625 1.95575 3.95575C2.92625 2.98525 4.10767 2.5 5.5 2.5H10.75C11.2 1.9 11.75 1.41667 12.4 1.05C13.05 0.683333 13.75 0.5 14.5 0.5C14.7757 0.5 15.0113 0.59775 15.2068 0.79325C15.4023 0.98875 15.5 1.22433 15.5 1.5C15.5 1.568 15.4907 1.63433 15.472 1.699C15.4535 1.76383 15.434 1.82825 15.4135 1.89225C15.3403 2.08842 15.2698 2.30058 15.202 2.52875C15.134 2.75708 15.0705 3.04683 15.0115 3.398L17.6135 6H18.596C18.8538 6 19.0689 6.08625 19.2413 6.25875C19.4138 6.43108 19.5 6.64617 19.5 6.904V11.452C19.5 11.6493 19.4439 11.8249 19.3318 11.9788C19.2196 12.1326 19.0648 12.2447 18.8673 12.3152L16.771 13.0058L15.5115 17.2095C15.391 17.6045 15.1718 17.9183 14.8538 18.151C14.5359 18.3837 14.1744 18.5 13.7693 18.5H12.3078C11.8091 18.5 11.3831 18.3234 11.0298 17.9703C10.6766 17.6169 10.5 17.1909 10.5 16.6923V16.5H7.5V16.6923C7.5 17.1909 7.32342 17.6169 6.97025 17.9703C6.61692 18.3234 6.19092 18.5 5.69225 18.5H4.20375ZM4.25 17H5.69225C5.78208 17 5.85583 16.9712 5.9135 16.9135C5.97117 16.8558 6 16.7821 6 16.6923V15H12V16.6923C12 16.7821 12.0288 16.8558 12.0865 16.9135C12.1442 16.9712 12.2179 17 12.3078 17H13.7693C13.8398 17 13.9023 16.9808 13.9568 16.9423C14.0113 16.9038 14.0481 16.8493 14.0673 16.7788L15.55 11.85L18 11.025V7.5H17L13.5 4C13.5 3.68583 13.5224 3.364 13.5673 3.0345C13.6121 2.70517 13.6794 2.39683 13.7693 2.1095C13.3051 2.2365 12.8849 2.4705 12.5087 2.8115C12.1324 3.1525 11.8545 3.54867 11.675 4H5.5C4.53333 4 3.70833 4.34167 3.025 5.025C2.34167 5.70833 2 6.53333 2 7.5C2 8.1705 2.16858 9.3125 2.50575 10.926C2.84292 12.5395 3.31858 14.484 3.93275 16.7595C3.95192 16.83 3.992 16.8878 4.053 16.9328C4.11383 16.9776 4.1795 17 4.25 17ZM14 8.8845C14.2448 8.8845 14.4535 8.79833 14.626 8.626C14.7983 8.4535 14.8845 8.24483 14.8845 8C14.8845 7.75517 14.7983 7.5465 14.626 7.374C14.4535 7.20167 14.2448 7.1155 14 7.1155C13.7552 7.1155 13.5465 7.20167 13.374 7.374C13.2017 7.5465 13.1155 7.75517 13.1155 8C13.1155 8.24483 13.2017 8.4535 13.374 8.626C13.5465 8.79833 13.7552 8.8845 14 8.8845ZM10.25 6.75C10.4628 6.75 10.641 6.67817 10.7845 6.5345C10.9282 6.391 11 6.21283 11 6C11 5.78717 10.9282 5.609 10.7845 5.4655C10.641 5.32183 10.4628 5.25 10.25 5.25H6.75C6.53717 5.25 6.359 5.32183 6.2155 5.4655C6.07183 5.609 6 5.78717 6 6C6 6.21283 6.07183 6.391 6.2155 6.5345C6.359 6.67817 6.53717 6.75 6.75 6.75H10.25Z" fill="#EBEBEB"/>
</svg>
