<svg width="18" height="17" viewBox="0 0 18 17" fill="none" xmlns="http://www.w3.org/2000/svg">
<path d="M0.99975 16.7516C0.787083 16.7516 0.609 16.6797 0.4655 16.5358C0.321833 16.3922 0.25 16.2141 0.25 16.0016V15.1073C0.25 14.8948 0.321917 14.7168 0.46575 14.5731C0.609583 14.4293 0.78775 14.3573 1.00025 14.3573C1.21292 14.3573 1.391 14.4293 1.5345 14.5731C1.67817 14.7168 1.75 14.8948 1.75 15.1073V16.0016C1.75 16.2141 1.67808 16.3922 1.53425 16.5358C1.39042 16.6797 1.21225 16.7516 0.99975 16.7516ZM4.99975 16.7516C4.78708 16.7516 4.609 16.6797 4.4655 16.5358C4.32183 16.3922 4.25 16.2141 4.25 16.0016V10.6073C4.25 10.3948 4.32192 10.2168 4.46575 10.0731C4.60958 9.92926 4.78775 9.85735 5.00025 9.85735C5.21292 9.85735 5.391 9.92926 5.5345 10.0731C5.67817 10.2168 5.75 10.3948 5.75 10.6073V16.0016C5.75 16.2141 5.67808 16.3922 5.53425 16.5358C5.39042 16.6797 5.21225 16.7516 4.99975 16.7516ZM8.99975 16.7516C8.78708 16.7516 8.609 16.6797 8.4655 16.5358C8.32183 16.3922 8.25 16.2141 8.25 16.0016V12.6073C8.25 12.3948 8.32192 12.2168 8.46575 12.0731C8.60958 11.9293 8.78775 11.8573 9.00025 11.8573C9.21292 11.8573 9.391 11.9293 9.5345 12.0731C9.67817 12.2168 9.75 12.3948 9.75 12.6073V16.0016C9.75 16.2141 9.67808 16.3922 9.53425 16.5358C9.39042 16.6797 9.21225 16.7516 8.99975 16.7516ZM12.9997 16.7516C12.7871 16.7516 12.609 16.6797 12.4655 16.5358C12.3218 16.3922 12.25 16.2141 12.25 16.0016V11.1073C12.25 10.8948 12.3219 10.7168 12.4658 10.5731C12.6096 10.4293 12.7878 10.3573 13.0003 10.3573C13.2129 10.3573 13.391 10.4293 13.5345 10.5731C13.6782 10.7168 13.75 10.8948 13.75 11.1073V16.0016C13.75 16.2141 13.6781 16.3922 13.5343 16.5358C13.3904 16.6797 13.2122 16.7516 12.9997 16.7516ZM16.9998 16.7516C16.7871 16.7516 16.609 16.6797 16.4655 16.5358C16.3218 16.3922 16.25 16.2141 16.25 16.0016V7.10735C16.25 6.89485 16.3219 6.71676 16.4658 6.5731C16.6096 6.42926 16.7878 6.35735 17.0003 6.35735C17.2129 6.35735 17.391 6.42926 17.5345 6.5731C17.6782 6.71676 17.75 6.89485 17.75 7.10735V16.0016C17.75 16.2141 17.6781 16.3922 17.5343 16.5358C17.3904 16.6797 17.2123 16.7516 16.9998 16.7516ZM11 7.70735C10.7653 7.70735 10.5385 7.66235 10.3195 7.57235C10.1005 7.48235 9.90042 7.35493 9.71925 7.1901L7.22125 4.69185C7.16358 4.63418 7.08983 4.60535 7 4.60535C6.91017 4.60535 6.83642 4.63418 6.77875 4.69185L1.527 9.94385C1.37817 10.0925 1.19992 10.1659 0.99225 10.1641C0.784583 10.1621 0.606417 10.0836 0.45775 9.9286C0.31925 9.77976 0.253083 9.60276 0.25925 9.3976C0.265417 9.19226 0.336667 9.02118 0.473 8.88435L5.71925 3.6381C5.90042 3.45826 6.1005 3.3271 6.3195 3.2446C6.5385 3.1621 6.76533 3.12085 7 3.12085C7.23467 3.12085 7.46525 3.1621 7.69175 3.2446C7.91825 3.3271 8.11458 3.45826 8.28075 3.6381L10.7788 6.13635C10.8364 6.19401 10.9102 6.22285 11 6.22285C11.0898 6.22285 11.1636 6.19401 11.2212 6.13635L16.473 0.884346C16.6218 0.735679 16.8001 0.662263 17.0078 0.664096C17.2154 0.666096 17.3936 0.744596 17.5423 0.899596C17.6808 1.04843 17.7469 1.22543 17.7408 1.4306C17.7346 1.63593 17.6633 1.80701 17.527 1.94385L12.2807 7.1901C12.1146 7.35493 11.9182 7.48235 11.6917 7.57235C11.4652 7.66235 11.2347 7.70735 11 7.70735Z" fill="#EBEBEB"/>
</svg>
