<svg width="185" height="48" viewBox="0 0 185 48" fill="none" xmlns="http://www.w3.org/2000/svg">
<path d="M39.9199 29.4744C37.7428 27.8262 35.5603 26.1812 33.3723 24.5394C33.0049 24.2624 32.6474 23.9966 32.2685 23.7293C32.3126 23.6402 32.3469 23.5673 32.3796 23.5187C33.4066 21.8256 34.4434 20.1326 35.4591 18.4395C36.0599 17.4318 36.3734 16.3592 36.1938 15.1749C36.1229 14.5996 35.9328 14.0452 35.6355 13.5464C35.3382 13.0476 34.9402 12.6152 34.4663 12.2764C32.6588 10.9592 30.221 11.2022 28.611 12.696C27.1268 14.0796 25.6556 15.4957 24.1828 16.9084C24.0392 17.0526 23.9494 17.0705 23.7926 16.9198C23.0791 16.2004 22.3427 15.5038 21.6079 14.8136C20.816 14.0375 20.0306 13.2631 19.193 12.5551C18.7058 12.128 18.1327 11.8086 17.5118 11.6178C16.8908 11.427 16.2361 11.3693 15.591 11.4485C13.9859 11.6364 12.8593 12.5113 12.1621 13.916C11.4698 15.2883 11.5808 16.6703 12.3058 17.9891C12.9785 19.2496 13.7622 20.4679 14.5101 21.7074C14.9003 22.3554 15.302 23.0116 15.7135 23.6872C15.6253 23.7536 15.5502 23.8201 15.48 23.8865C12.9932 25.7675 10.495 27.6274 8.02943 29.5295C6.78033 30.5016 6.26763 31.7977 6.50275 33.3596C6.82932 35.4399 9.02218 36.9434 11.0975 36.4897C12.5717 36.1612 14.0154 35.7097 15.413 35.1401C16.556 34.6865 17.6875 34.2004 18.7031 33.5021C20.6315 32.1866 21.2568 30.1273 20.7654 27.9936C20.4764 26.7882 19.851 25.7254 19.2599 24.6512C19.1603 24.4746 19.1603 24.3758 19.3269 24.2526C20.816 23.078 22.3165 21.8985 23.7991 20.7223C23.9445 20.6008 24.0343 20.6219 24.1779 20.7223C25.6736 21.9104 27.1682 23.0904 28.6617 24.2624C28.7841 24.3628 28.807 24.4244 28.74 24.5621C28.5392 24.8861 28.3612 25.2247 28.1816 25.5569C27.4011 26.9632 26.8884 28.4343 27.0778 30.0723C27.1761 31.1283 27.6598 32.1124 28.438 32.8395C29.0748 33.4357 29.8552 33.8343 30.6243 34.2328C32.4618 35.1715 34.3995 35.903 36.4012 36.4136C37.4723 36.7003 38.5238 36.6453 39.5035 36.1025C42.0426 34.6865 42.2679 31.2566 39.9199 29.4744ZM17.4312 31.1788C16.7952 31.6053 16.1283 31.9844 15.4359 32.3129C13.9392 32.9877 12.3816 33.521 10.784 33.9056C9.93656 34.1275 9.20179 33.6739 9.04504 32.8427C8.93401 32.2789 9.22302 31.8706 9.63612 31.5466C10.5505 30.8273 11.4649 30.1192 12.3907 29.4112C13.8602 28.316 15.3118 27.2321 16.7846 26.1353C16.8515 26.0915 16.9299 26.0478 17.0638 25.9473C17.3528 26.5452 17.632 27.0993 17.8802 27.6631C18.1303 28.2253 18.2667 28.8308 18.2819 29.4453C18.3114 29.7836 18.2479 30.1235 18.0981 30.4288C17.9483 30.7341 17.7178 30.9933 17.4312 31.1788ZM21.892 18.9822C20.6103 19.9803 19.3154 20.988 18.0402 21.9941C17.8508 22.1561 17.7839 22.1156 17.6614 21.9164C16.8189 20.5003 15.9486 19.0843 15.1011 17.657C14.8524 17.2798 14.634 16.8838 14.448 16.4726C14.3024 16.1131 14.2754 15.717 14.3707 15.3412C14.4661 14.9654 14.6789 14.6293 14.9787 14.381C15.2686 14.1415 15.6272 13.9988 16.0035 13.9729C16.3798 13.947 16.7548 14.0393 17.0752 14.2368C17.4591 14.4823 17.814 14.7698 18.1333 15.0939C19.4052 16.2733 20.6527 17.469 21.9149 18.6744C21.959 18.7182 21.9932 18.7635 22.0782 18.8624C22.0145 18.9077 21.9475 18.9401 21.892 18.9822ZM26.041 18.9401C26.2859 18.6744 26.521 18.4201 26.7545 18.177C27.7244 17.1806 28.6959 16.1842 29.6773 15.2105C30.0279 14.8689 30.4107 14.5613 30.8202 14.2919C31.1604 14.0556 31.5734 13.9452 31.9872 13.9798C32.401 14.0144 32.7894 14.1919 33.0849 14.4814C33.3806 14.7638 33.5715 15.1369 33.6266 15.5404C33.6818 15.9439 33.5979 16.354 33.3886 16.7043C32.3404 18.4746 31.2883 20.2492 30.2324 22.0282C30.2096 22.0606 30.1769 22.0946 30.1328 22.1497C28.7727 21.0885 27.424 20.024 26.041 18.9401ZM37.26 33.9007C35.5195 33.426 33.7805 32.9156 32.1526 32.1412C31.6693 31.9087 31.2033 31.6424 30.7582 31.3441C29.754 30.6701 29.465 29.7239 29.7442 28.5898C29.9777 27.6598 30.4577 26.8417 30.959 25.9975C31.4276 26.3507 31.862 26.6829 32.2979 27.015C34.3052 28.5272 36.3125 30.0469 38.3197 31.5741C38.5075 31.6975 38.6604 31.8665 38.7639 32.065C38.8673 32.2635 38.9179 32.4849 38.9108 32.7083C38.9021 32.9027 38.8494 33.0927 38.7566 33.2642C38.6638 33.4356 38.5332 33.5841 38.3746 33.6987C38.2161 33.8132 38.0335 33.8909 37.8406 33.9258C37.6476 33.9608 37.4492 33.9522 37.26 33.9007Z" fill="black"/>
<path d="M67.14 19.76C68.5 19.76 69.5933 20.18 70.42 21.02C71.26 21.8467 71.68 23.0067 71.68 24.5V31H68.88V24.88C68.88 24.0133 68.66 23.3533 68.22 22.9C67.78 22.4333 67.18 22.2 66.42 22.2C65.66 22.2 65.0533 22.4333 64.6 22.9C64.16 23.3533 63.94 24.0133 63.94 24.88V31H61.14V24.88C61.14 24.0133 60.92 23.3533 60.48 22.9C60.04 22.4333 59.44 22.2 58.68 22.2C57.9067 22.2 57.2933 22.4333 56.84 22.9C56.4 23.3533 56.18 24.0133 56.18 24.88V31H53.38V19.92H56.18V21.26C56.54 20.7933 57 20.4267 57.56 20.16C58.1333 19.8933 58.76 19.76 59.44 19.76C60.3067 19.76 61.08 19.9467 61.76 20.32C62.44 20.68 62.9667 21.2 63.34 21.88C63.7 21.24 64.22 20.7267 64.9 20.34C65.5933 19.9533 66.34 19.76 67.14 19.76ZM84.937 19.92L78.077 36.24H75.097L77.497 30.72L73.057 19.92H76.197L79.057 27.66L81.957 19.92H84.937ZM90.6864 31.18C89.7797 31.18 88.9664 31.02 88.2464 30.7C87.5264 30.3667 86.9531 29.92 86.5264 29.36C86.1131 28.8 85.8864 28.18 85.8464 27.5H88.6664C88.7197 27.9267 88.9264 28.28 89.2864 28.56C89.6597 28.84 90.1197 28.98 90.6664 28.98C91.1997 28.98 91.6131 28.8733 91.9064 28.66C92.2131 28.4467 92.3664 28.1733 92.3664 27.84C92.3664 27.48 92.1797 27.2133 91.8064 27.04C91.4464 26.8533 90.8664 26.6533 90.0664 26.44C89.2397 26.24 88.5597 26.0333 88.0264 25.82C87.5064 25.6067 87.0531 25.28 86.6664 24.84C86.2931 24.4 86.1064 23.8067 86.1064 23.06C86.1064 22.4467 86.2797 21.8867 86.6264 21.38C86.9864 20.8733 87.4931 20.4733 88.1464 20.18C88.8131 19.8867 89.5931 19.74 90.4864 19.74C91.8064 19.74 92.8597 20.0733 93.6464 20.74C94.4331 21.3933 94.8664 22.28 94.9464 23.4H92.2664C92.2264 22.96 92.0397 22.6133 91.7064 22.36C91.3864 22.0933 90.9531 21.96 90.4064 21.96C89.8997 21.96 89.5064 22.0533 89.2264 22.24C88.9597 22.4267 88.8264 22.6867 88.8264 23.02C88.8264 23.3933 89.0131 23.68 89.3864 23.88C89.7597 24.0667 90.3397 24.26 91.1264 24.46C91.9264 24.66 92.5864 24.8667 93.1064 25.08C93.6264 25.2933 94.0731 25.6267 94.4464 26.08C94.8331 26.52 95.0331 27.1067 95.0464 27.84C95.0464 28.48 94.8664 29.0533 94.5064 29.56C94.1597 30.0667 93.6531 30.4667 92.9864 30.76C92.3331 31.04 91.5664 31.18 90.6864 31.18ZM100.605 22.22V27.58C100.605 27.9533 100.692 28.2267 100.865 28.4C101.052 28.56 101.358 28.64 101.785 28.64H103.085V31H101.325C98.9648 31 97.7848 29.8533 97.7848 27.56V22.22H96.4648V19.92H97.7848V17.18H100.605V19.92H103.085V22.22H100.605ZM104.379 25.42C104.379 24.3 104.599 23.3067 105.039 22.44C105.492 21.5733 106.099 20.9067 106.859 20.44C107.632 19.9733 108.492 19.74 109.439 19.74C110.265 19.74 110.985 19.9067 111.599 20.24C112.225 20.5733 112.725 20.9933 113.099 21.5V19.92H115.919V31H113.099V29.38C112.739 29.9 112.239 30.3333 111.599 30.68C110.972 31.0133 110.245 31.18 109.419 31.18C108.485 31.18 107.632 30.94 106.859 30.46C106.099 29.98 105.492 29.3067 105.039 28.44C104.599 27.56 104.379 26.5533 104.379 25.42ZM113.099 25.46C113.099 24.78 112.965 24.2 112.699 23.72C112.432 23.2267 112.072 22.8533 111.619 22.6C111.165 22.3333 110.679 22.2 110.159 22.2C109.639 22.2 109.159 22.3267 108.719 22.58C108.279 22.8333 107.919 23.2067 107.639 23.7C107.372 24.18 107.239 24.7533 107.239 25.42C107.239 26.0867 107.372 26.6733 107.639 27.18C107.919 27.6733 108.279 28.0533 108.719 28.32C109.172 28.5867 109.652 28.72 110.159 28.72C110.679 28.72 111.165 28.5933 111.619 28.34C112.072 28.0733 112.432 27.7 112.699 27.22C112.965 26.7267 113.099 26.14 113.099 25.46ZM121.453 21.64C121.813 21.0533 122.28 20.5933 122.853 20.26C123.44 19.9267 124.107 19.76 124.853 19.76V22.7H124.113C123.233 22.7 122.567 22.9067 122.113 23.32C121.673 23.7333 121.453 24.4533 121.453 25.48V31H118.653V19.92H121.453V21.64ZM129.999 22.22V27.58C129.999 27.9533 130.086 28.2267 130.259 28.4C130.446 28.56 130.753 28.64 131.179 28.64H132.479V31H130.719C128.359 31 127.179 29.8533 127.179 27.56V22.22H125.859V19.92H127.179V17.18H129.999V19.92H132.479V22.22H129.999ZM144.953 19.92V31H142.133V29.6C141.773 30.08 141.3 30.46 140.713 30.74C140.14 31.0067 139.513 31.14 138.833 31.14C137.967 31.14 137.2 30.96 136.533 30.6C135.867 30.2267 135.34 29.6867 134.953 28.98C134.58 28.26 134.393 27.4067 134.393 26.42V19.92H137.193V26.02C137.193 26.9 137.413 27.58 137.853 28.06C138.293 28.5267 138.893 28.76 139.653 28.76C140.427 28.76 141.033 28.5267 141.473 28.06C141.913 27.58 142.133 26.9 142.133 26.02V19.92H144.953ZM150.516 21.52C150.876 21.0133 151.369 20.5933 151.996 20.26C152.636 19.9133 153.363 19.74 154.176 19.74C155.123 19.74 155.976 19.9733 156.736 20.44C157.509 20.9067 158.116 21.5733 158.556 22.44C159.009 23.2933 159.236 24.2867 159.236 25.42C159.236 26.5533 159.009 27.56 158.556 28.44C158.116 29.3067 157.509 29.98 156.736 30.46C155.976 30.94 155.123 31.18 154.176 31.18C153.363 31.18 152.643 31.0133 152.016 30.68C151.403 30.3467 150.903 29.9267 150.516 29.42V36.28H147.716V19.92H150.516V21.52ZM156.376 25.42C156.376 24.7533 156.236 24.18 155.956 23.7C155.689 23.2067 155.329 22.8333 154.876 22.58C154.436 22.3267 153.956 22.2 153.436 22.2C152.929 22.2 152.449 22.3333 151.996 22.6C151.556 22.8533 151.196 23.2267 150.916 23.72C150.649 24.2133 150.516 24.7933 150.516 25.46C150.516 26.1267 150.649 26.7067 150.916 27.2C151.196 27.6933 151.556 28.0733 151.996 28.34C152.449 28.5933 152.929 28.72 153.436 28.72C153.956 28.72 154.436 28.5867 154.876 28.32C155.329 28.0533 155.689 27.6733 155.956 27.18C156.236 26.6867 156.376 26.1 156.376 25.42ZM162.511 31.14C162.004 31.14 161.584 30.9867 161.251 30.68C160.931 30.36 160.771 29.9667 160.771 29.5C160.771 29.0333 160.931 28.6467 161.251 28.34C161.584 28.02 162.004 27.86 162.511 27.86C163.004 27.86 163.411 28.02 163.731 28.34C164.051 28.6467 164.211 29.0333 164.211 29.5C164.211 29.9667 164.051 30.36 163.731 30.68C163.411 30.9867 163.004 31.14 162.511 31.14ZM165.746 25.42C165.746 24.3 165.966 23.3067 166.406 22.44C166.859 21.5733 167.466 20.9067 168.226 20.44C168.999 19.9733 169.859 19.74 170.806 19.74C171.633 19.74 172.353 19.9067 172.966 20.24C173.593 20.5733 174.093 20.9933 174.466 21.5V19.92H177.286V31H174.466V29.38C174.106 29.9 173.606 30.3333 172.966 30.68C172.339 31.0133 171.613 31.18 170.786 31.18C169.853 31.18 168.999 30.94 168.226 30.46C167.466 29.98 166.859 29.3067 166.406 28.44C165.966 27.56 165.746 26.5533 165.746 25.42ZM174.466 25.46C174.466 24.78 174.333 24.2 174.066 23.72C173.799 23.2267 173.439 22.8533 172.986 22.6C172.533 22.3333 172.046 22.2 171.526 22.2C171.006 22.2 170.526 22.3267 170.086 22.58C169.646 22.8333 169.286 23.2067 169.006 23.7C168.739 24.18 168.606 24.7533 168.606 25.42C168.606 26.0867 168.739 26.6733 169.006 27.18C169.286 27.6733 169.646 28.0533 170.086 28.32C170.539 28.5867 171.019 28.72 171.526 28.72C172.046 28.72 172.533 28.5933 172.986 28.34C173.439 28.0733 173.799 27.7 174.066 27.22C174.333 26.7267 174.466 26.14 174.466 25.46ZM181.441 18.6C180.947 18.6 180.534 18.4467 180.201 18.14C179.881 17.82 179.721 17.4267 179.721 16.96C179.721 16.4933 179.881 16.1067 180.201 15.8C180.534 15.48 180.947 15.32 181.441 15.32C181.934 15.32 182.341 15.48 182.661 15.8C182.994 16.1067 183.161 16.4933 183.161 16.96C183.161 17.4267 182.994 17.82 182.661 18.14C182.341 18.4467 181.934 18.6 181.441 18.6ZM182.821 19.92V31H180.021V19.92H182.821Z" fill="black"/>
</svg>
