<svg width="18" height="18" viewBox="0 0 18 18" fill="none" xmlns="http://www.w3.org/2000/svg">
<path d="M2.30775 17.5C1.80908 17.5 1.38308 17.3234 1.02975 16.9703C0.676583 16.6169 0.5 16.1909 0.5 15.6923V3.75C0.5 3.57433 0.524667 3.40958 0.574 3.25575C0.623334 3.10192 0.703833 2.959 0.8155 2.827L2.19625 1.1655C2.30775 1.027 2.43525 0.923166 2.57875 0.853999C2.72242 0.784666 2.88208 0.75 3.05775 0.75H14.9423C15.1179 0.75 15.2776 0.784666 15.4212 0.853999C15.5647 0.923166 15.6923 1.027 15.8038 1.1655L17.1845 2.827C17.2962 2.959 17.3767 3.10192 17.426 3.25575C17.4753 3.40958 17.5 3.57433 17.5 3.75V15.6923C17.5 16.1909 17.3234 16.6169 16.9703 16.9703C16.6169 17.3234 16.1909 17.5 15.6923 17.5H2.30775ZM2.4 3.25H15.6L14.75 2.25H3.25L2.4 3.25ZM2.30775 16H15.6923C15.7821 16 15.8558 15.9712 15.9135 15.9135C15.9712 15.8558 16 15.7821 16 15.6923V4.75H2V15.6923C2 15.7821 2.02883 15.8558 2.0865 15.9135C2.14417 15.9712 2.21792 16 2.30775 16ZM12.5655 10.5L11.0078 12.0578C10.8591 12.2064 10.7831 12.3856 10.7798 12.5953C10.7766 12.8048 10.8526 12.9871 11.0078 13.1423C11.1629 13.2974 11.3437 13.375 11.55 13.375C11.7563 13.375 11.9371 13.2974 12.0923 13.1423L14.102 11.1328C14.2827 10.9519 14.373 10.741 14.373 10.5C14.373 10.259 14.2827 10.0481 14.102 9.86725L12.0923 7.85775C11.9436 7.70908 11.7644 7.63308 11.5548 7.62975C11.3453 7.62658 11.1629 7.70258 11.0078 7.85775C10.8526 8.01292 10.775 8.19367 10.775 8.4C10.775 8.60633 10.8526 8.78708 11.0078 8.94225L12.5655 10.5ZM5.4845 10.5L7.04225 8.94225C7.19092 8.79358 7.26692 8.61442 7.27025 8.40475C7.27342 8.19525 7.19742 8.01292 7.04225 7.85775C6.88708 7.70258 6.70633 7.625 6.5 7.625C6.29367 7.625 6.11292 7.70258 5.95775 7.85775L3.948 9.86725C3.76733 10.0481 3.677 10.259 3.677 10.5C3.677 10.741 3.76733 10.9519 3.948 11.1328L5.95775 13.1423C6.10642 13.2909 6.28558 13.3669 6.49525 13.3703C6.70475 13.3734 6.88708 13.2974 7.04225 13.1423C7.19742 12.9871 7.275 12.8063 7.275 12.6C7.275 12.3937 7.19742 12.2129 7.04225 12.0578L5.4845 10.5Z" fill="#EBEBEB"/>
</svg>
