<svg width="20" height="19" viewBox="0 0 20 19" fill="none" xmlns="http://www.w3.org/2000/svg">
<path d="M14.7792 6.10575C14.5341 6.10575 14.3285 6.02283 14.1625 5.857C13.9965 5.69133 13.9135 5.48592 13.9135 5.24075C13.9135 4.99558 13.9964 4.79 14.1622 4.624C14.3279 4.458 14.5333 4.375 14.7785 4.375C15.0237 4.375 15.2293 4.45792 15.3953 4.62375C15.5613 4.78958 15.6443 4.995 15.6443 5.24C15.6443 5.48517 15.5613 5.69075 15.3955 5.85675C15.2297 6.02275 15.0242 6.10575 14.7792 6.10575ZM15.5038 11.8463H7.99625C7.80375 11.8463 7.66683 11.7642 7.5855 11.6C7.50417 11.4358 7.52375 11.2768 7.64425 11.123L9.02125 9.31725C9.11475 9.19675 9.23358 9.1365 9.37775 9.1365C9.52208 9.1365 9.641 9.19358 9.7345 9.30775L10.9423 10.8078L12.9578 8.2365C13.0513 8.116 13.1718 8.05575 13.3193 8.05575C13.4666 8.05575 13.5871 8.116 13.6807 8.2365L15.8652 11.123C15.9794 11.2768 15.9958 11.4358 15.9145 11.6C15.833 11.7642 15.6961 11.8463 15.5038 11.8463ZM2.55775 19C2.05258 19 1.625 18.825 1.275 18.475C0.925 18.125 0.75 17.6974 0.75 17.1923V5.05775C0.75 4.84525 0.821917 4.66708 0.96575 4.52325C1.10958 4.37958 1.28775 4.30775 1.50025 4.30775C1.71292 4.30775 1.89108 4.37958 2.03475 4.52325C2.17825 4.66708 2.25 4.84525 2.25 5.05775V17.1923C2.25 17.2693 2.28208 17.3398 2.34625 17.4038C2.41025 17.4679 2.48075 17.5 2.55775 17.5H14.6923C14.9048 17.5 15.0829 17.5719 15.2268 17.7158C15.3704 17.8596 15.4423 18.0378 15.4423 18.2503C15.4423 18.4629 15.3704 18.641 15.2268 18.7845C15.0829 18.9282 14.9048 19 14.6923 19H2.55775ZM4.25 2.30775C4.25 1.80258 4.425 1.375 4.775 1.025C5.125 0.675 5.55258 0.5 6.05775 0.5H9.90375C10.1162 0.5 10.2944 0.571917 10.4383 0.71575C10.5819 0.859583 10.6537 1.03775 10.6537 1.25025C10.6537 1.46292 10.5819 1.641 10.4383 1.7845C10.2944 1.92817 10.1162 2 9.90375 2H6.05775C5.98075 2 5.91025 2.03208 5.84625 2.09625C5.78208 2.16025 5.75 2.23075 5.75 2.30775V6.52875C5.75 6.74125 5.67808 6.91942 5.53425 7.06325C5.39042 7.20692 5.21225 7.27875 4.99975 7.27875C4.78708 7.27875 4.609 7.20692 4.4655 7.06325C4.32183 6.91942 4.25 6.74125 4.25 6.52875V2.30775ZM6.05775 15.5C5.55258 15.5 5.125 15.325 4.775 14.975C4.425 14.625 4.25 14.1974 4.25 13.6923V10.2213C4.25 10.0088 4.32192 9.83058 4.46575 9.68675C4.60958 9.54308 4.78775 9.47125 5.00025 9.47125C5.21292 9.47125 5.391 9.54308 5.5345 9.68675C5.67817 9.83058 5.75 10.0088 5.75 10.2213V13.6923C5.75 13.7693 5.78208 13.8398 5.84625 13.9038C5.91025 13.9679 5.98075 14 6.05775 14H9.90375C10.1162 14 10.2944 14.0719 10.4383 14.2158C10.5819 14.3596 10.6537 14.5378 10.6537 14.7503C10.6537 14.9629 10.5819 15.141 10.4383 15.2845C10.2944 15.4282 10.1162 15.5 9.90375 15.5H6.05775ZM17.4423 15.5H13.596C13.3837 15.5 13.2056 15.4281 13.0617 15.2843C12.9181 15.1404 12.8462 14.9622 12.8462 14.7497C12.8462 14.5371 12.9181 14.359 13.0617 14.2155C13.2056 14.0718 13.3837 14 13.596 14H17.4423C17.5193 14 17.5898 13.9679 17.6538 13.9038C17.7179 13.8398 17.75 13.7693 17.75 13.6923V10.2213C17.75 10.0088 17.8219 9.83058 17.9658 9.68675C18.1096 9.54308 18.2878 9.47125 18.5003 9.47125C18.7129 9.47125 18.891 9.54308 19.0345 9.68675C19.1782 9.83058 19.25 10.0088 19.25 10.2213V13.6923C19.25 14.1974 19.075 14.625 18.725 14.975C18.375 15.325 17.9474 15.5 17.4423 15.5ZM19.25 2.30775V6.52875C19.25 6.74125 19.1781 6.91942 19.0343 7.06325C18.8904 7.20692 18.7123 7.27875 18.4998 7.27875C18.2871 7.27875 18.1089 7.20692 17.9652 7.06325C17.8217 6.91942 17.75 6.74125 17.75 6.52875V2.30775C17.75 2.23075 17.7179 2.16025 17.6538 2.09625C17.5898 2.03208 17.5193 2 17.4423 2H13.596C13.3837 2 13.2056 1.92808 13.0617 1.78425C12.9181 1.64042 12.8462 1.46225 12.8462 1.24975C12.8462 1.03708 12.9181 0.859 13.0617 0.7155C13.2056 0.571833 13.3837 0.5 13.596 0.5H17.4423C17.9474 0.5 18.375 0.675 18.725 1.025C19.075 1.375 19.25 1.80258 19.25 2.30775Z" fill="#EBEBEB"/>
</svg>
