<svg width="44" height="44" viewBox="0 0 44 44" fill="none" xmlns="http://www.w3.org/2000/svg">
<rect width="44" height="44" rx="22" fill="#8765CC"/>
<path d="M15.3077 30.5C14.8091 30.5 14.3831 30.3234 14.0298 29.9703C13.6766 29.6169 13.5 29.1909 13.5 28.6923V16.75C13.5 16.5743 13.5247 16.4096 13.574 16.2557C13.6233 16.1019 13.7038 15.959 13.8155 15.827L15.1963 14.1655C15.3078 14.027 15.4352 13.9232 15.5787 13.854C15.7224 13.7847 15.8821 13.75 16.0577 13.75H27.9423C28.1179 13.75 28.2776 13.7847 28.4212 13.854C28.5647 13.9232 28.6923 14.027 28.8038 14.1655L30.1845 15.827C30.2962 15.959 30.3767 16.1019 30.426 16.2557C30.4753 16.4096 30.5 16.5743 30.5 16.75V28.6923C30.5 29.1909 30.3234 29.6169 29.9703 29.9703C29.6169 30.3234 29.1909 30.5 28.6923 30.5H15.3077ZM15.4 16.25H28.6L27.75 15.25H16.25L15.4 16.25ZM15.3077 29H28.6923C28.7821 29 28.8558 28.9712 28.9135 28.9135C28.9712 28.8558 29 28.7821 29 28.6923V17.75H15V28.6923C15 28.7821 15.0288 28.8558 15.0865 28.9135C15.1442 28.9712 15.2179 29 15.3077 29ZM25.5655 23.5L24.0078 25.0578C23.8591 25.2064 23.7831 25.3856 23.7798 25.5953C23.7766 25.8048 23.8526 25.9871 24.0078 26.1423C24.1629 26.2974 24.3437 26.375 24.55 26.375C24.7563 26.375 24.9371 26.2974 25.0923 26.1423L27.102 24.1328C27.2827 23.9519 27.373 23.741 27.373 23.5C27.373 23.259 27.2827 23.0481 27.102 22.8673L25.0923 20.8578C24.9436 20.7091 24.7644 20.6331 24.5548 20.6298C24.3453 20.6266 24.1629 20.7026 24.0078 20.8578C23.8526 21.0129 23.775 21.1937 23.775 21.4C23.775 21.6063 23.8526 21.7871 24.0078 21.9423L25.5655 23.5ZM18.4845 23.5L20.0423 21.9423C20.1909 21.7936 20.2669 21.6144 20.2703 21.4048C20.2734 21.1953 20.1974 21.0129 20.0423 20.8578C19.8871 20.7026 19.7063 20.625 19.5 20.625C19.2937 20.625 19.1129 20.7026 18.9578 20.8578L16.948 22.8673C16.7673 23.0481 16.677 23.259 16.677 23.5C16.677 23.741 16.7673 23.9519 16.948 24.1328L18.9578 26.1423C19.1064 26.2909 19.2856 26.3669 19.4953 26.3703C19.7048 26.3734 19.8871 26.2974 20.0423 26.1423C20.1974 25.9871 20.275 25.8063 20.275 25.6C20.275 25.3937 20.1974 25.2129 20.0423 25.0578L18.4845 23.5Z" fill="white"/>
</svg>
