<svg width="45" height="44" viewBox="0 0 45 44" fill="none" xmlns="http://www.w3.org/2000/svg">
<rect x="0.666016" width="44" height="44" rx="22" fill="#8765CC"/>
<path d="M14.9738 29.5C14.4686 29.5 14.041 29.325 13.691 28.975C13.341 28.625 13.166 28.1974 13.166 27.6923V16.3077C13.166 15.8026 13.341 15.375 13.691 15.025C14.041 14.675 14.4686 14.5 14.9738 14.5H19.716C19.957 14.5 20.1888 14.5468 20.4113 14.6405C20.6336 14.734 20.8268 14.8628 20.991 15.027L22.464 16.5H30.3583C30.8634 16.5 31.291 16.675 31.641 17.025C31.991 17.375 32.166 17.8026 32.166 18.3077V27.6923C32.166 28.1974 31.991 28.625 31.641 28.975C31.291 29.325 30.8634 29.5 30.3583 29.5H14.9738ZM14.9738 28H30.3583C30.4481 28 30.5218 27.9712 30.5795 27.9135C30.6372 27.8558 30.666 27.7821 30.666 27.6923V18.3077C30.666 18.2179 30.6372 18.1442 30.5795 18.0865C30.5218 18.0288 30.4481 18 30.3583 18H21.8505L19.9373 16.0865C19.9051 16.0545 19.8714 16.0321 19.8363 16.0193C19.8009 16.0064 19.764 16 19.7255 16H14.9738C14.8839 16 14.8102 16.0288 14.7525 16.0865C14.6948 16.1442 14.666 16.2179 14.666 16.3077V27.6923C14.666 27.7821 14.6948 27.8558 14.7525 27.9135C14.8102 27.9712 14.8839 28 14.9738 28Z" fill="white"/>
</svg>
