<svg width="14" height="20" viewBox="0 0 14 20" fill="none" xmlns="http://www.w3.org/2000/svg">
<path d="M7 14.725C8.64367 13.3403 9.88792 12.0025 10.7328 10.7115C11.5776 9.4205 12 8.21092 12 7.08275C12 5.59558 11.5333 4.37667 10.6 3.426C9.66667 2.47533 8.46667 2 7 2C5.53333 2 4.33333 2.47533 3.4 3.426C2.46667 4.37667 2 5.59558 2 7.08275C2 8.21092 2.42242 9.4205 3.26725 10.7115C4.11208 12.0025 5.35633 13.3403 7 14.725ZM7 16.1595C6.81283 16.1595 6.62833 16.1278 6.4465 16.0645C6.2645 16.001 6.09775 15.9058 5.94625 15.7788C4.13342 14.2571 2.7725 12.768 1.8635 11.3115C0.9545 9.85517 0.5 8.44558 0.5 7.08275C0.5 5.15958 1.10517 3.58167 2.3155 2.349C3.52567 1.11633 5.08717 0.5 7 0.5C8.91283 0.5 10.4743 1.11633 11.6845 2.349C12.8948 3.58167 13.5 5.15958 13.5 7.08275C13.5 8.44558 13.0455 9.85358 12.1365 11.3067C11.2275 12.7599 9.8665 14.2492 8.0535 15.7745C7.89983 15.9043 7.73267 16.001 7.552 16.0645C7.37117 16.1278 7.18717 16.1595 7 16.1595ZM7.00175 8.80775C7.49925 8.80775 7.92458 8.63058 8.27775 8.27625C8.63108 7.92192 8.80775 7.49592 8.80775 6.99825C8.80775 6.50075 8.63058 6.07542 8.27625 5.72225C7.92192 5.36892 7.49592 5.19225 6.99825 5.19225C6.50075 5.19225 6.07542 5.36942 5.72225 5.72375C5.36892 6.07808 5.19225 6.50408 5.19225 7.00175C5.19225 7.49925 5.36942 7.92458 5.72375 8.27775C6.07808 8.63108 6.50408 8.80775 7.00175 8.80775ZM1.25 19.5C1.0375 19.5 0.859417 19.4281 0.71575 19.2843C0.571917 19.1404 0.5 18.9623 0.5 18.7498C0.5 18.5371 0.571917 18.359 0.71575 18.2155C0.859417 18.0718 1.0375 18 1.25 18H12.75C12.9625 18 13.1406 18.0719 13.2843 18.2158C13.4281 18.3596 13.5 18.5378 13.5 18.7503C13.5 18.9629 13.4281 19.141 13.2843 19.2845C13.1406 19.4282 12.9625 19.5 12.75 19.5H1.25Z" fill="#EBEBEB"/>
</svg>
